<svg width="16" height="16" viewBox="0 0 16 16" fill="none" xmlns="http://www.w3.org/2000/svg">
<g opacity="0.72">
<path fill-rule="evenodd" clip-rule="evenodd" d="M9 1C9 0.447715 8.55228 0 8 0C7.44772 0 7 0.447715 7 1V6.5C7 7.05228 7.44772 7.5 8 7.5C8.55228 7.5 9 7.05228 9 6.5V1ZM10.5 1C11.0523 1 11.5 1.44772 11.5 2L11.5 7C11.5 7.55228 11.0523 8 10.5 8C9.94772 8 9.5 7.55228 9.5 7V2C9.5 1.44772 9.94772 1 10.5 1ZM14.0001 4C14.0001 3.44771 13.5523 3 13.0001 3C12.4478 3 12.0001 3.44771 12.0001 4L12.0001 10C12.0001 12.2091 10.2092 14 8.00006 14C5.79092 14 4.00006 12.2091 4.00006 10C5.1046 10 6 10.8955 6 12C6 12.5523 6.44772 13 7 13C7.55228 13 8 12.5523 8 12C8 9.79088 6.20917 8.00003 4.00006 8V7.4992C4.00006 6.95912 3.82517 6.43355 3.50156 6.00115L3.30067 5.73273C2.96975 5.29056 2.34304 5.20038 1.90088 5.5313C1.45871 5.86222 1.36853 6.48893 1.69945 6.9311L1.90033 7.19952C1.96507 7.28602 2.00006 7.39116 2.00006 7.4992L2.00006 10C2.00006 13.3137 4.68635 16 8.00006 16C11.3138 16 14.0001 13.3137 14.0001 10L14.0001 4ZM5.5 1C6.05228 1 6.5 1.44772 6.5 2V6C6.5 6.55228 6.05228 7 5.5 7C4.94772 7 4.5 6.55228 4.5 6V2C4.5 1.44772 4.94772 1 5.5 1Z" fill="white"/>
</g>
</svg>
