<svg width="16" height="6" viewBox="0 0 16 6" fill="none" xmlns="http://www.w3.org/2000/svg">
<path d="M13.9587 0.162233C14.423 -0.13682 15.0418 -0.002852 15.3409 0.46146C15.449 0.629231 15.5005 0.817177 15.5003 1.00292C15.5 1.33123 15.3382 1.65267 15.0417 1.84367L9.62463 5.33268C9.622 5.33436 9.61938 5.33605 9.61676 5.33773L9.08314 5.68142C8.42364 6.10619 7.5767 6.10619 6.9172 5.68142L6.38355 5.3377C6.38094 5.33603 6.37832 5.33435 6.37571 5.33267L0.958696 1.84367C0.784575 1.73152 0.656917 1.5744 0.581124 1.39732C0.474246 1.14763 0.47051 0.858252 0.585097 0.599325C0.605942 0.552221 0.630704 0.506124 0.659473 0.461458C0.958527 -0.00285313 1.57736 -0.13682 2.04167 0.162234L7.45869 3.65125L7.46324 3.65417C7.79081 3.86267 8.20954 3.86267 8.53711 3.65417L13.9587 0.162233Z" fill="white"/>
</svg>
