<svg width="16" height="6" viewBox="0 0 16 6" fill="none" xmlns="http://www.w3.org/2000/svg">
<g opacity="0.72">
<path d="M13.9587 0.162237C14.423 -0.136817 15.0418 -0.00284818 15.3409 0.461463C15.449 0.629235 15.5005 0.817181 15.5003 1.00292C15.5 1.33124 15.3382 1.65268 15.0417 1.84368L9.62463 5.33268C9.622 5.33437 9.61938 5.33605 9.61676 5.33773L9.08314 5.68142C8.42364 6.10619 7.5767 6.10619 6.9172 5.68142L6.38355 5.33771C6.38094 5.33603 6.37832 5.33436 6.37571 5.33268L0.958696 1.84367C0.784575 1.73153 0.656917 1.5744 0.581124 1.39733C0.474246 1.14763 0.47051 0.858256 0.585097 0.599328C0.605942 0.552224 0.630704 0.506128 0.659473 0.461462C0.958527 -0.00284931 1.57736 -0.136817 2.04167 0.162238L7.45869 3.65126L7.46324 3.65417C7.79081 3.86267 8.20954 3.86267 8.53711 3.65417L13.9587 0.162237Z" fill="#3D75E4"/>
</g>
</svg>
