<svg width="16" height="6" viewBox="0 0 16 6" fill="none" xmlns="http://www.w3.org/2000/svg">
<g opacity="0.72">
<path d="M2.04167 5.83917C1.57735 6.13822 0.958525 6.00425 0.659472 5.53994C0.551414 5.37217 0.499891 5.18422 0.500061 4.99848C0.500357 4.67017 0.662152 4.34873 0.958698 4.15773L6.37574 0.668724C6.37836 0.667036 6.38098 0.665353 6.38361 0.663674L6.91723 0.319982C7.57673 -0.10479 8.42366 -0.104789 9.08317 0.319984L9.61682 0.663698C9.61943 0.66537 9.62204 0.667047 9.62465 0.668728L15.0417 4.15773C15.2158 4.26988 15.3434 4.427 15.4192 4.60408C15.5261 4.85377 15.5299 5.14315 15.4153 5.40208C15.3944 5.44918 15.3697 5.49528 15.3409 5.53994C15.0418 6.00425 14.423 6.13822 13.9587 5.83917L8.54168 2.35015L8.53712 2.34723C8.20955 2.13873 7.79082 2.13873 7.46325 2.34724L2.04167 5.83917Z" fill="white"/>
</g>
</svg>
