<svg width="16" height="16" viewBox="0 0 16 16" fill="none" xmlns="http://www.w3.org/2000/svg">
<g opacity="0.72">
<path d="M6.5 0C5.94772 0 5.5 0.447715 5.5 1H2C0.895431 1 0 1.89543 0 3V6.21922C0 7.13696 0.624595 7.93692 1.51493 8.15951L4.75746 8.97014C5.29326 9.10409 5.83619 8.77833 5.97014 8.24254C6.10409 7.70674 5.77833 7.16381 5.24254 7.02986L2 6.21922V3H14V6.21922L10.7575 7.02986C10.2217 7.16381 9.89591 7.70674 10.0299 8.24254C10.1638 8.77833 10.7067 9.10409 11.2425 8.97014L14.4851 8.15951C15.3754 7.93692 16 7.13696 16 6.21922V3C16 1.89543 15.1046 1 14 1H10.5C10.5 0.447715 10.0523 0 9.5 0H6.5Z" fill="white"/>
<path d="M2 10C2 9.44771 1.55228 9 1 9C0.447715 9 0 9.44771 0 10V13C0 13.9326 0.638335 14.7161 1.50193 14.9375C1.50065 14.9582 1.5 14.979 1.5 15C1.5 15.5523 1.94772 16 2.5 16H4C4.55228 16 5 15.5523 5 15H11C11 15.5523 11.4477 16 12 16H13.5C14.0523 16 14.5 15.5523 14.5 15C14.5 14.979 14.4993 14.9582 14.4981 14.9375C15.3617 14.7161 16 13.9326 16 13V10C16 9.44771 15.5523 9 15 9C14.4477 9 14 9.44771 14 10V13H2V10Z" fill="white"/>
<path d="M9 8C9 7.44772 8.55229 7 8 7C7.44772 7 7 7.44772 7 8V9C7 9.55228 7.44772 10 8 10C8.55229 10 9 9.55228 9 9V8Z" fill="white"/>
</g>
</svg>
