<svg width="16" height="16" viewBox="0 0 16 16" fill="none" xmlns="http://www.w3.org/2000/svg">
<g opacity="0.72" clip-path="url(#clip0_473_1128)">
<path d="M2 8C2 4.68629 4.68629 2 8 2C11.3137 2 14 4.68629 14 8C14 8.83981 13.828 9.63686 13.5184 10.3599C13.3009 10.8676 13.5362 11.4554 14.0439 11.6728C14.5516 11.8903 15.1394 11.655 15.3568 11.1473C15.7711 10.18 16 9.11544 16 8C16 3.58172 12.4183 0 8 0C3.58172 0 8.56878e-09 3.58172 8.56878e-09 8C8.56878e-09 9.11544 0.228867 10.18 0.643152 11.1473C0.860588 11.655 1.44841 11.8903 1.95609 11.6728C2.46377 11.4554 2.69906 10.8676 2.48163 10.3599C2.17195 9.63686 2 8.83981 2 8Z" fill="white"/>
<path fill-rule="evenodd" clip-rule="evenodd" d="M8 3C10.7614 3 13 5.23858 13 8V13.0549C13.925 12.8837 14.9226 13.1129 15.653 13.7426C16.0713 14.1032 16.118 14.7346 15.7574 15.1529C15.3968 15.5712 14.7654 15.618 14.3471 15.2574C13.949 14.9142 13.2506 14.9142 12.8525 15.2574C11.7039 16.2475 9.89466 16.2475 8.74613 15.2574C8.348 14.9142 7.65036 14.9142 7.25223 15.2574C6.1037 16.2475 4.29441 16.2475 3.14588 15.2574C3.13782 15.2505 3.1299 15.2434 3.12212 15.2363C2.72028 14.9143 2.04274 14.9214 1.65296 15.2574C1.23465 15.618 0.603218 15.5712 0.242608 15.1529C-0.118001 14.7346 -0.0712297 14.1032 0.347075 13.7426C1.07746 13.1129 2.07505 12.8837 3 13.0549V8C3 5.23858 5.23858 3 8 3ZM8 5C9.30622 5 10.4175 5.83481 10.8293 7H5.17071C5.58254 5.83481 6.69378 5 8 5ZM11 13.9845V9H8V10.5C8 11.0523 7.55228 11.5 7 11.5C6.44772 11.5 6 11.0523 6 10.5V9H5V13.9848C5.3353 14.0367 5.69884 13.956 5.94635 13.7426C6.52083 13.2473 7.26045 12.9998 8 13V12.5C8 11.9477 8.44771 11.5 9 11.5C9.55229 11.5 10 11.9477 10 12.5V13.6988C10.0175 13.7132 10.0348 13.7278 10.052 13.7426C10.2999 13.9563 10.6642 14.0369 11 13.9845Z" fill="white"/>
</g>
<defs>
<clipPath id="clip0_473_1128">
<rect width="16" height="16" fill="white"/>
</clipPath>
</defs>
</svg>
