<svg width="16" height="16" viewBox="0 0 16 16" fill="none" xmlns="http://www.w3.org/2000/svg">
<g opacity="0.72">
<path d="M9.30158 0.491216C8.5526 -0.163739 7.4474 -0.163739 6.69842 0.491216L0.349226 6.04336C-0.0700989 6.41004 -0.11866 7.0541 0.240761 7.4819C0.600182 7.9097 1.23148 7.95924 1.65081 7.59256L8 2.04041L14.3492 7.59256C14.7685 7.95924 15.3998 7.9097 15.7592 7.4819C16.1187 7.0541 16.0701 6.41004 15.6508 6.04336L9.30158 0.491216Z" fill="white"/>
<path fill-rule="evenodd" clip-rule="evenodd" d="M7.40037 10.7968C7.40037 8.82479 8.96737 7.22613 10.9004 7.22613C12.8334 7.22613 14.4004 8.82479 14.4004 10.7968C14.4004 11.4178 14.245 12.0018 13.9717 12.5105C14.0191 12.5443 14.0643 12.5828 14.1066 12.626L15.7066 14.2583C16.0972 14.6567 16.0972 15.3027 15.7066 15.7011C15.3161 16.0995 14.6829 16.0995 14.2924 15.7011L12.6924 14.0688C12.65 14.0255 12.6122 13.9793 12.579 13.9308C12.0807 14.2093 11.5086 14.3676 10.9004 14.3676C8.96737 14.3676 7.40037 12.7689 7.40037 10.7968ZM10.9004 9.26654C10.0719 9.26654 9.40037 9.95168 9.40037 10.7968C9.40037 11.642 10.0719 12.3272 10.9004 12.3272C11.7288 12.3272 12.4004 11.642 12.4004 10.7968C12.4004 9.95168 11.7288 9.26654 10.9004 9.26654Z" fill="white"/>
<path d="M2 16C1.44771 16 0.999998 15.5432 0.999998 14.9798C0.999998 14.4164 1.44771 13.9596 2 13.9596L1.99999 8.85856C1.99999 8.29511 2.44771 7.83835 2.99999 7.83835C3.55228 7.83835 3.99999 8.29511 3.99999 8.85856L3.99999 13.9596H6.99998C7.55227 13.9596 7.99998 14.4163 7.99998 14.9798C7.99998 15.5432 7.55227 16 6.99998 16H2Z" fill="white"/>
</g>
</svg>
