<svg width="16" height="16" viewBox="0 0 16 16" fill="none" xmlns="http://www.w3.org/2000/svg">
<g opacity="0.72">
<path fill-rule="evenodd" clip-rule="evenodd" d="M5.49981 0.999981C5.4998 0.447696 5.05208 -1.05167e-05 4.49979 1.85282e-10C3.94751 1.0574e-05 3.4998 0.447734 3.49981 1.00002L3.49984 2.58547L3.20726 2.29288C2.81673 1.90236 2.18357 1.90236 1.79304 2.29288C1.40252 2.6834 1.40252 3.31657 1.79304 3.70709L2.08594 3.99999H1C0.447715 3.99999 0 4.4477 0 4.99999C0 5.55227 0.447715 5.99999 1 5.99999H2.08579L1.79289 6.29288C1.40237 6.68341 1.40237 7.31657 1.79289 7.7071C2.18342 8.09762 2.81658 8.09762 3.20711 7.7071L3.49994 7.41427L3.49997 9.00002C3.49998 9.5523 3.9477 10 4.49999 10C5.05227 9.99999 5.49998 9.55226 5.49997 8.99998L5.49994 7.41399L5.79304 7.70709C6.18357 8.09762 6.81673 8.09762 7.20726 7.70709C7.59778 7.31657 7.59778 6.6834 7.20726 6.29288L6.91436 5.99999H8C8.55228 5.99999 9 5.55227 9 4.99999C9 4.4477 8.55228 3.99999 8 3.99999H6.91422L7.20711 3.7071C7.59763 3.31657 7.59763 2.68341 7.20711 2.29288C6.81658 1.90236 6.18342 1.90236 5.79289 2.29288L5.49984 2.58593L5.49981 0.999981ZM5.5 5C5.5 5.55228 5.05228 6 4.5 6C3.94772 6 3.5 5.55228 3.5 5C3.5 4.44772 3.94772 4 4.5 4C5.05228 4 5.5 4.44772 5.5 5Z" fill="white"/>
<path fill-rule="evenodd" clip-rule="evenodd" d="M11.1423 5.44943C11.3745 5.20232 11.6432 5 12 5C12.3568 5 12.7108 5.29316 12.8577 5.44943C12.9475 5.54502 13.0734 5.6823 13.2234 5.85476C13.5223 6.19858 13.9219 6.68781 14.3232 7.26977C15.096 8.39032 16 10.0298 16 11.7C16 13.983 14.2967 16 12 16C9.70331 16 8 13.983 8 11.7C8 10.0298 8.90399 8.39032 9.67679 7.26977C10.0781 6.68781 10.4777 6.19858 10.7766 5.85476C10.9266 5.6823 11.0525 5.54502 11.1423 5.44943ZM12 7.50634C11.7914 7.76169 11.5569 8.06639 11.3232 8.40523C10.596 9.45968 10 10.6702 10 11.7C10 13.0621 10.983 14 12 14C13.017 14 14 13.0621 14 11.7C14 10.6702 13.404 9.45968 12.6768 8.40523C12.4431 8.06639 12.2086 7.76169 12 7.50634Z" fill="white"/>
</g>
</svg>
