<svg width="16" height="16" viewBox="0 0 16 16" fill="none" xmlns="http://www.w3.org/2000/svg">
<g opacity="0.72" clip-path="url(#clip0_344_1053)">
<path d="M13.8208 6.28704C12.9085 3.23446 9.7278 1.40038 6.57896 2.17946C6.04284 2.3121 5.5007 1.98502 5.36806 1.4489C5.23541 0.912782 5.56249 0.370641 6.09861 0.237997C10.2806 -0.796693 14.5183 1.63615 15.737 5.71436C15.8952 6.24352 15.5944 6.80068 15.0653 6.95883C14.5361 7.11697 13.9789 6.8162 13.8208 6.28704Z" fill="white"/>
<path d="M4.35088 1.95378C4.70016 2.38159 4.6365 3.01155 4.20869 3.36083C2.46228 4.78667 1.60023 7.12879 2.17979 9.44676C2.38145 10.2533 2.73748 10.9788 3.20829 11.6017C3.54132 12.0422 3.45413 12.6694 3.01355 13.0024C2.57297 13.3354 1.94584 13.2482 1.61281 12.8077C0.982962 11.9744 0.507727 11.0046 0.239513 9.93188C-0.535679 6.83146 0.622167 3.7071 2.94383 1.81159C3.37164 1.46231 4.00159 1.52597 4.35088 1.95378Z" fill="white"/>
<path d="M15.1456 8.0225C15.692 8.10293 16.0698 8.61108 15.9893 9.15747C15.5306 12.2739 13.2344 14.9559 9.97505 15.7623C8.35402 16.1634 6.70483 16.0431 5.24114 15.5079C4.43498 15.2132 3.99999 14.4435 3.99999 13.6908V9.99971C3.99999 9.44742 4.44771 8.99971 4.99999 8.99971C5.55228 8.99971 5.99999 9.44742 5.99999 9.99971V13.6554C6.32297 13.7688 6.65764 13.8557 7 13.9138V5.00012C7 4.44784 7.44772 4.00012 8 4.00012C8.55229 4.00012 9 4.44784 9 5.00012V13.9219C9.16502 13.8952 9.33005 13.8616 9.49471 13.8209C9.6668 13.7783 9.83531 13.7288 10 13.6727V8.00012C10 7.44784 10.4477 7.00012 11 7.00012C11.5523 7.00012 12 7.44784 12 8.00012V12.5257C13.0824 11.5879 13.8015 10.2868 14.0107 8.86621C14.0911 8.31981 14.5992 7.94207 15.1456 8.0225Z" fill="white"/>
</g>
<defs>
<clipPath id="clip0_344_1053">
<rect width="16" height="16" fill="white"/>
</clipPath>
</defs>
</svg>
