<svg width="16" height="16" viewBox="0 0 16 16" fill="none" xmlns="http://www.w3.org/2000/svg">
<g opacity="0.72" clip-path="url(#clip0_473_1149)">
<path d="M4.52345 3.10939C5.24638 2.59456 6.08834 2.23603 7 2.08308V2.50012C7 3.05241 7.44772 3.50012 8 3.50012C8.55228 3.50012 9 3.05241 9 2.50012V2.08292C9.39582 2.14924 9.778 2.25425 10.1428 2.39377C10.6586 2.59106 11.2367 2.33283 11.434 1.81698C11.6313 1.30114 11.3731 0.72303 10.8572 0.525736C9.96857 0.185847 9.0048 0.00012207 8 0.00012207C3.58172 0.00012207 0 3.58184 0 8.00012C0 12.4184 3.58172 16.0001 8 16.0001C12.4183 16.0001 16 12.4184 16 8.00012C16 6.99532 15.8143 6.03155 15.4744 5.14289C15.2771 4.62705 14.699 4.36881 14.1831 4.56611C13.6673 4.7634 13.4091 5.34151 13.6064 5.85736C13.7459 6.22213 13.8509 6.60431 13.9172 7.00012H13.5C12.9477 7.00012 12.5 7.44784 12.5 8.00012C12.5 8.55241 12.9477 9.00012 13.5 9.00012H13.917C13.441 11.8378 10.973 14.0001 8 14.0001C5.027 14.0001 2.55904 11.8378 2.08296 9.00012H2.5C3.05228 9.00012 3.5 8.55241 3.5 8.00012C3.5 7.44784 3.05228 7.00012 2.5 7.00012H2.08296C2.2359 6.08847 2.59443 5.24653 3.10924 4.5236L3.29289 4.70726C3.68342 5.09778 4.31658 5.09778 4.70711 4.70726C5.09763 4.31673 5.09763 3.68357 4.70711 3.29304L4.52345 3.10939Z" fill="white"/>
<path d="M8 9.5C8.82843 9.5 9.5 8.82843 9.5 8C9.5 7.97202 9.49923 7.94422 9.49772 7.91661L13.7071 3.70723C14.0976 3.3167 14.0976 2.68354 13.7071 2.29302C13.3166 1.90249 12.6834 1.90249 12.2929 2.29302L8.08362 6.50229C8.05594 6.50077 8.02806 6.5 8 6.5C7.17157 6.5 6.5 7.17157 6.5 8C6.5 8.82843 7.17157 9.5 8 9.5Z" fill="white"/>
<path d="M6.5 10.5001C5.94772 10.5001 5.5 10.9478 5.5 11.5001C5.5 12.0524 5.94772 12.5001 6.5 12.5001H9.5C10.0523 12.5001 10.5 12.0524 10.5 11.5001C10.5 10.9478 10.0523 10.5001 9.5 10.5001H6.5Z" fill="white"/>
</g>
<defs>
<clipPath id="clip0_473_1149">
<rect width="16" height="16" fill="white"/>
</clipPath>
</defs>
</svg>
