<svg width="16" height="16" viewBox="0 0 16 16" fill="none" xmlns="http://www.w3.org/2000/svg">
<g opacity="0.72">
<path d="M8.89482 7.44739C9.14179 6.9534 8.94154 6.35274 8.44755 6.10577C7.95356 5.8588 7.3529 6.05904 7.10593 6.55303L6.106 8.5531C5.95101 8.86309 5.96759 9.23123 6.14981 9.52604C6.33203 9.82085 6.6539 10.0003 7.00047 10.0003L7.52332 10.0003L7.0719 11.1288C6.86678 11.6416 7.1162 12.2236 7.62898 12.4287C8.14177 12.6338 8.72374 12.3844 8.92885 11.8716L9.92885 9.3716C10.0521 9.06351 10.0145 8.71434 9.82843 8.43957C9.6424 8.16479 9.33217 8.0002 9.00034 8.00021L8.61843 8.00022L8.89482 7.44739Z" fill="white"/>
<path fill-rule="evenodd" clip-rule="evenodd" d="M9.71943 1.98098C9.33121 1.33263 8.67188 1 8.00352 1C7.33516 1 6.67639 1.33233 6.28806 1.98021L0.299349 11.9717C0.101007 12.3027 0 12.6549 0 12.9999C0 14.0287 0.846427 14.9999 2.0148 14.9999H13.9862C15.1545 14.9999 16 14.0548 16 12.9999C16 12.6525 15.9001 12.3032 15.7021 11.9725L9.71943 1.98098ZM2 12.9999L8.00352 3.00842L14 12.9999H2Z" fill="white"/>
</g>
</svg>
