<svg width="16" height="16" viewBox="0 0 16 16" fill="none" xmlns="http://www.w3.org/2000/svg">
<g opacity="0.72">
<path fill-rule="evenodd" clip-rule="evenodd" d="M8.00007 10C10.8001 10 13.0001 7.8 13.0001 5C13.0001 2.2 10.8001 0 8.00007 0C5.20007 0 3.00007 2.2 3.00007 5C3.00007 7.8 5.20007 10 8.00007 10ZM8.00007 2C9.70007 2 11.0001 3.3 11.0001 5C11.0001 6.7 9.70007 8 8.00007 8C6.30007 8 5.00007 6.7 5.00007 5C5.00007 3.3 6.30007 2 8.00007 2ZM15.8001 15.6C15.5001 16 14.8001 16.1 14.4001 15.8C12.5001 14.4 10.7001 13.5 8.00007 13.5C5.30007 13.5 3.50007 14.4 1.60007 15.8C1.20007 16.1 0.500068 16 0.200068 15.6C-0.0999319 15.2 6.80946e-05 14.5 0.400068 14.2C2.50007 12.6 4.70007 11.5 8.00007 11.5C11.3001 11.5 13.5001 12.6 15.6001 14.2C16.0001 14.5 16.1001 15.2 15.8001 15.6Z" fill="white"/>
</g>
</svg>
