<svg width="16" height="16" viewBox="0 0 16 16" fill="none" xmlns="http://www.w3.org/2000/svg">
<g opacity="0.72">
<path d="M0 3.00012C0 1.89555 0.89543 1.00012 2 1.00012H14C15.1046 1.00012 16 1.89555 16 3.00012V10.0001C16 11.1047 15.1046 12.0001 14 12.0001H2C0.895431 12.0001 0 11.1047 0 10.0001V9.50012C0 8.94784 0.447715 8.50012 1 8.50012C1.55228 8.50012 2 8.94784 2 9.50012V10.0001H14V3.00012L2 3.00012V6.00012H4.43381L5.64251 3.98563C5.83029 3.67266 6.17366 3.48686 6.53838 3.50086C6.90309 3.51487 7.2312 3.72646 7.39443 4.05291L8.77395 6.81196L9.29289 6.29302C9.48043 6.10548 9.73478 6.00012 10 6.00012H12C12.5523 6.00012 13 6.44784 13 7.00012C13 7.55241 12.5523 8.00012 12 8.00012H10.4142L9.20711 9.20723C8.97981 9.43453 8.65711 9.5387 8.33982 9.48721C8.02252 9.43572 7.74933 9.23485 7.60557 8.94734L6.42025 6.57669L5.85749 7.51462C5.67677 7.81583 5.35126 8.00012 5 8.00012H1C0.447715 8.00012 0 7.55241 0 7.00012C0 6.98489 0.000340644 6.96974 0.00101473 6.95467C0.000340644 6.9396 0 6.92445 0 6.90921V3.00012Z" fill="white"/>
<path d="M5 13.0001C4.44772 13.0001 4 13.4478 4 14.0001C4 14.5524 4.44772 15.0001 5 15.0001H11.4C11.9523 15.0001 12.4 14.5524 12.4 14.0001C12.4 13.4478 11.9523 13.0001 11.4 13.0001H5Z" fill="white"/>
</g>
</svg>
