<svg width="16" height="16" viewBox="0 0 16 16" fill="none" xmlns="http://www.w3.org/2000/svg">
<g opacity="0.72" clip-path="url(#clip0_473_1107)">
<path fill-rule="evenodd" clip-rule="evenodd" d="M6.99988 2.19141C6.16939 2.5834 5.5207 3.12655 4.62253 3.53148C4.20287 3.72067 3.54297 4.2667 3.63229 4.82757C3.87538 6.35399 4.46301 8.24779 5.33467 10.0009C5.81983 10.9766 6.3861 11.8852 6.99988 12.6484V2.19141ZM7.9859 16C8.2305 16.0032 8.4732 15.9169 8.66223 15.7497C11.8859 13.4002 14.0136 9.04881 14.4264 5.09475C14.5177 4.22041 14.1682 3.49004 13.6906 2.9546C13.2241 2.43166 12.608 2.05645 12.0216 1.81311C11.7617 1.70526 11.5162 1.57215 11.2683 1.42048C10.7972 1.13227 10.1816 1.28054 9.8934 1.75166C9.60518 2.22277 9.75346 2.83833 10.2246 3.12655C10.528 3.31219 10.8691 3.50023 11.2551 3.66039C11.6498 3.82418 11.9856 4.04778 12.1981 4.286C12.3995 4.51173 12.4562 4.70488 12.4372 4.88708C12.1441 7.69501 10.8715 10.5679 8.99988 12.6484V1.84376C8.99988 1.2966 8.76476 0.767472 8.35038 0.408253C8.06062 0.157066 7.66628 1.14441e-05 7.27635 1.14441e-05C7.05647 1.14441e-05 6.84597 0.040984 6.62742 0.132815C5.68194 0.530098 5.36388 0.97239 3.97869 1.7422C3.27353 2.13409 2.77344 2.43566 2.3153 2.96717C1.84274 3.51542 1.51706 4.26228 1.65718 5.14212C1.9337 6.87844 2.58639 8.96573 3.54383 10.8913C4.47758 12.7693 5.74706 14.5858 7.32961 15.749C7.39091 15.8033 7.45942 15.8504 7.53416 15.8889C7.67659 15.9623 7.83144 15.999 7.9859 16Z" fill="white"/>
</g>
<defs>
<clipPath id="clip0_473_1107">
<rect width="16" height="16" fill="white"/>
</clipPath>
</defs>
</svg>
