<svg width="16" height="16" viewBox="0 0 16 16" fill="none" xmlns="http://www.w3.org/2000/svg">
<g opacity="0.72">
<path d="M10.7014 0.324315C10.4009 -0.00645715 9.91887 -0.094763 9.52234 0.108322C9.12581 0.311407 8.91189 0.756155 8.9991 1.19616C9.34388 2.93571 8.90723 4.05196 8.37623 4.57346C7.88555 5.05535 7.15964 5.19542 6.34415 4.68496C5.87905 4.39383 5.26812 4.53828 4.97961 5.0076C4.69109 5.47692 4.83424 6.09338 5.29934 6.38452C6.82869 7.34182 8.56641 7.17757 9.75863 6.00669C10.3082 5.46694 10.7016 4.75561 10.9156 3.92182C12.2261 6.11041 12.6974 8.33873 12.4574 10.1149C12.2969 11.302 11.8264 12.2601 11.1133 12.9186C10.407 13.5709 9.3868 14 7.98859 14C6.59557 14 5.63663 13.5741 4.97409 12.9593C4.29731 12.3313 3.85006 11.4309 3.63269 10.3616C3.18953 8.18161 3.76096 5.59284 4.83095 4.08128C5.14908 3.63186 5.04592 3.00731 4.60055 2.68631C4.15517 2.3653 3.53623 2.46939 3.21811 2.9188C1.81056 4.90723 1.14323 8.06847 1.69108 10.7635C1.96922 12.1317 2.57492 13.4501 3.63242 14.4314C4.70415 15.426 6.16082 16 7.98859 16C9.81119 16 11.3305 15.4292 12.4514 14.394C13.5656 13.365 14.21 11.9481 14.4212 10.3852C14.8411 7.27842 13.5795 3.49255 10.7014 0.324315Z" fill="white"/>
<path d="M6.06833 11.8357C7.12191 13.8119 11.7923 11.9399 10.6581 7.95734C10.6161 7.81002 10.4275 7.77165 10.3122 7.87142C9.82793 8.2904 9.21416 8.47052 8.62851 8.64239C8.24716 8.7543 7.87772 8.86272 7.56374 9.03131C6.23162 9.74657 5.51291 10.7939 6.06833 11.8357Z" fill="white"/>
</g>
</svg>
