<svg width="16" height="16" viewBox="0 0 16 16" fill="none" xmlns="http://www.w3.org/2000/svg">
<g opacity="0.72">
<path d="M5 2C4.44772 2 4 2.44772 4 3V13C4 13.5523 4.44772 14 5 14H11C11.5523 14 12 13.5523 12 13V7C12 6.44772 12.4477 6 13 6C13.5523 6 14 6.44772 14 7V13C14 14.6569 12.6569 16 11 16H5C3.34315 16 2 14.6569 2 13V3C2 1.34315 3.34315 0 5 0H11C12.6569 0 14 1.34315 14 3V4C14 4.55228 13.5523 5 13 5C12.4477 5 12 4.55228 12 4V3C12 2.44772 11.5523 2 11 2H10C10 2.55228 9.55228 3 9 3H7C6.44772 3 6 2.55228 6 2H5Z" fill="white"/>
<path d="M8 13C8.55228 13 9 12.5523 9 12C9 11.4477 8.55228 11 8 11C7.44772 11 7 11.4477 7 12C7 12.5523 7.44772 13 8 13Z" fill="white"/>
</g>
</svg>
