<svg width="16" height="16" viewBox="0 0 16 16" fill="none" xmlns="http://www.w3.org/2000/svg">
<g opacity="0.72">
<path fill-rule="evenodd" clip-rule="evenodd" d="M4 0C2.34315 0 1 1.34315 1 3C0.447715 3 0 3.44772 0 4C0 4.55228 0.447715 5 1 5H15C15.5523 5 16 4.55228 16 4C16 3.44772 15.5523 3 15 3C15 1.34315 13.6569 0 12 0H4ZM13 3H3C3 2.44772 3.44772 2 4 2H12C12.5523 2 13 2.44772 13 3Z" fill="white"/>
<path d="M3 7C3 6.44772 2.55228 6 2 6C1.44772 6 1 6.44772 1 7V12C1 13.3062 1.83481 14.4175 3 14.8293V15C3 15.5523 3.44772 16 4 16C4.55228 16 5 15.5523 5 15H11C11 15.5523 11.4477 16 12 16C12.5523 16 13 15.5523 13 15V14.8293C14.1652 14.4175 15 13.3062 15 12V7C15 6.44772 14.5523 6 14 6C13.4477 6 13 6.44772 13 7V12C13 12.5523 12.5523 13 12 13H4C3.44772 13 3 12.5523 3 12V7Z" fill="white"/>
<path d="M10 8C10.5523 8 11 7.55228 11 7C11 6.44772 10.5523 6 10 6H6C5.44772 6 5 6.44772 5 7C5 7.55228 5.44772 8 6 8H10Z" fill="white"/>
</g>
</svg>
